Coordinates
version=1
nRows=22
nColumns=24
inDegrees=yes

Units are S.I. units (second, meters, Newtons, ...)
Angles are in degrees.

endheader
time	pelvis_tilt	pelvis_list	pelvis_rotation	pelvis_tx	pelvis_ty	pelvis_tz	hip_flexion_r	hip_adduction_r	hip_rotation_r	knee_angle_r	ankle_angle_r	subtalar_angle_r	mtp_angle_r	hip_flexion_l	hip_adduction_l	hip_rotation_l	knee_angle_l	ankle_angle_l	subtalar_angle_l	mtp_angle_l	lumbar_extension	lumbar_bending	lumbar_rotation
      4.41500000	    -10.12448079	      6.34518578	      3.28632662	     -0.27860058	     -0.02119006	      0.62197547	     27.84417184	    -12.61215920	     -5.36616756	    -65.88871051	     -4.38675076	      0.67449428	     12.15620185	     17.43971079	     10.91544579	     -1.37632365	    -18.77965228	      4.65340030	      6.75489678	     12.64066372	      5.98593397	     -9.19977091	     -2.78093635
      4.42000000	    -10.11217308	      6.01387931	      3.65959822	     -0.27207749	     -0.02019423	      0.62135019	     28.47065594	    -12.32608699	     -5.67112745	    -65.18371192	     -4.33537853	      0.96624328	     12.26260748	     16.64986444	     10.74354888	     -0.59750583	    -18.24954539	      4.75714389	      6.45009298	     12.34754052	      5.95110835	     -8.90444512	     -3.36261530
      4.42500000	    -10.08608404	      5.70556015	      4.05169764	     -0.26551178	     -0.01925226	      0.62070462	     29.04827530	    -12.08558460	     -6.01361310	    -64.40371938	     -4.28971627	      1.16741943	     12.33902983	     15.83199245	     10.58856343	      0.23302330	    -17.69916708	      4.84572761	      6.12358024	     11.99635176	      5.91135285	     -8.63688403	     -3.91110224
      4.43000000	    -10.06979703	      5.38671245	      4.42204747	     -0.25903093	     -0.01841998	      0.62011328	     29.63468312	    -11.81401159	     -6.31315684	    -63.56444167	     -4.27137681	      1.33357329	     12.35495328	     15.06198573	     10.39263204	      0.96547772	    -17.19423075	      4.96544693	      5.84780271	     11.69378746	      5.87254639	     -8.35812181	     -4.50495621
      4.43500000	    -10.04429411	      5.08449054	      4.80011323	     -0.25252168	     -0.01764799	      0.61951959	     30.18034813	    -11.57346346	     -6.63489294	    -62.65392015	     -4.24876089	      1.42535363	     12.31317770	     14.27571400	     10.20064509	      1.71233723	    -16.67585571	      5.07419081	      5.57332640	     11.37080038	      5.83219231	     -8.09904975	     -5.07045350
      4.44000000	    -10.01507922	      4.79801692	      5.17512099	     -0.24601942	     -0.01695791	      0.61893281	     30.70099400	    -11.35466227	     -6.95663222	    -61.68082317	     -4.22150121	      1.46302361	     12.20528759	     13.49105700	     10.00777020	      2.43917539	    -16.15967197	      5.18384422	      5.31421527	     11.04158605	      5.79003592	     -7.85593626	     -5.62182501
      4.44500000	     -9.99156978	      4.51750526	      5.53502027	     -0.23953619	     -0.01636116	      0.61838405	     31.21186076	    -11.13690814	     -7.26345910	    -60.64733382	     -4.19637586	      1.45073280	     12.02643473	     12.72720719	      9.79791421	      3.09927575	    -15.65642812	      5.30331767	      5.09496142	     10.74623581	      5.75507329	     -7.61986992	     -6.16870906
      4.45000000	     -9.96306147	      4.25255251	      5.88904423	     -0.23306111	     -0.01584268	      0.61784944	     31.69350490	    -10.93738124	     -7.56642455	    -59.54990549	     -4.16527041	      1.38580335	     11.77061901	     11.96339833	      9.58679828	      3.73145695	    -15.15428478	      5.42552082	      4.89797439	     10.46446966	      5.71678505	     -7.40107392	     -6.70448239
      4.45500000	     -9.96367553	      3.97822028	      6.20709615	     -0.22655416	     -0.01542282	      0.61733197	     32.18439655	    -10.71952755	     -7.84746298	    -58.37688439	     -4.14436462	      1.29601751	     11.47774385	     11.24656857	      9.34413687	      4.24539032	    -14.66424374	      5.54966408	      4.75939852	     10.24819525	      5.72889885	     -7.16252108	     -7.16006791
      4.46000000	     -9.89743405	      3.76705088	      6.56095636	     -0.22013583	     -0.01506322	      0.61684529	     32.58299031	    -10.58227851	     -8.14976284	    -57.17837613	     -4.08639240	      1.11789630	     11.03254229	     10.44819744	      9.15591328	      4.86655427	    -14.16031603	      5.68381610	      4.59397945	      9.97294594	      5.63254264	     -7.00470024	     -7.73235561
      4.46500000	     -9.86843083	      3.54716494	      6.87130802	     -0.21367613	     -0.01481197	      0.61637690	     32.99971406	    -10.42367343	     -8.42409692	    -55.90736838	     -4.03635018	      0.93043723	     10.52233602	      9.70275841	      8.93991728	      5.37576296	    -13.66729049	      5.82535779	      4.47791119	      9.74202342	      5.59787673	     -6.82775671	     -8.20730474
      4.47000000	     -9.83381880	      3.33979383	      7.16973050	     -0.20723385	     -0.01464462	      0.61593618	     33.38651357	    -10.27699558	     -8.69777789	    -54.57949929	     -3.98038623	      0.71090583	      9.92619749	      8.96165163	      8.72109678	      5.84204112	    -13.18456489	      5.97439325	      4.39227000	      9.53331493	      5.55414270	     -6.66271546	     -8.67254320
      4.47500000	     -9.80194662	      3.14431105	      7.45137141	     -0.20079944	     -0.01456569	      0.61551211	     33.75243453	    -10.13807645	     -8.95981784	    -53.19359509	     -3.91981127	      0.46255903	      9.25065348	      8.23280957	      8.50196527	      6.26812023	    -12.71179649	      6.13396098	      4.33269797	      9.34494186	      5.51217947	     -6.50479225	     -9.11431222
      4.48000000	     -9.76574332	      2.96582407	      7.71294385	     -0.19435729	     -0.01457811	      0.61511349	     34.09154082	    -10.01606496	     -9.22589849	    -51.76012525	     -3.84754885	      0.21296609	      8.47523043	      7.50236842	      8.28743325	      6.66116441	    -12.24278244	      6.30806273	      4.28908219	      9.16234789	      5.46665929	     -6.36422184	     -9.53439956
      4.48500000	     -9.74960802	      2.79136586	      7.95408248	     -0.18793390	     -0.01469332	      0.61474619	     34.43033236	     -9.89250508	     -9.48560149	    -50.26572549	     -3.79008516	     -0.08276353	      7.69453121	      6.81154130	      8.06848591	      6.99280495	    -11.79684889	      6.48988743	      4.27008588	      9.01149643	      5.44124006	     -6.22748789	     -9.92750971
      4.49000000	     -9.72150517	      2.62832678	      8.18431959	     -0.18151363	     -0.01488076	      0.61439362	     34.72836284	     -9.78154780	     -9.75845573	    -48.71921106	     -3.71945327	     -0.37346011	      6.83183334	      6.11461840	      7.85149988	      7.31312296	    -11.36195802	      6.68034223	      4.26031052	      8.86156029	      5.39882897	     -6.09969983	    -10.30413472
      4.49500000	     -9.70257665	      2.47661786	      8.39532326	     -0.17509337	     -0.01516159	      0.61405915	     35.01222772	     -9.67738933	    -10.02489961	    -47.12206633	     -3.64002926	     -0.64677801	      5.91798273	      5.43900485	      7.64005834	      7.61060185	    -10.94766078	      6.87943774	      4.26295741	      8.72126316	      5.36616699	     -5.97709501	    -10.64494984
      4.50000000	     -9.65325529	      2.32832421	      8.57387739	     -0.16860300	     -0.01551254	      0.61370881	     35.23666876	     -9.57840215	    -10.32246323	    -45.50177711	     -3.46316005	     -0.70833257	      4.69492390	      4.72344225	      7.42402929	      7.88715467	    -10.52872951	      7.10470954	      4.22630451	      8.52956412	      5.31047997	     -5.84235279	    -10.94403051
      4.50500000	     -9.73674241	      2.19581885	      8.73669801	     -0.16218471	     -0.01608877	      0.61345344	     35.60457833	     -9.49496085	    -10.61642328	    -43.81627340	     -3.48344208	     -1.13985142	      4.06239458	      4.19151665	      7.23441304	      8.06165794	    -10.16670712	      7.32483181	      4.25541347	      8.48049450	      5.38823947	     -5.75549157	    -11.22632928
      4.51000000	     -9.66518917	      2.07219455	      8.93225025	     -0.15576526	     -0.01655797	      0.61316143	     35.74588724	     -9.41871959	    -10.94876481	    -42.08232880	     -3.37640911	     -1.37071982	      3.07467297	      3.49140801	      7.02730371	      8.34875569	     -9.81458238	      7.56011917	      4.29854786	      8.37231899	      5.28117935	     -5.65053265	    -11.55276651
      4.51500000	     -9.68426696	      1.94129774	      9.08716213	     -0.14929097	     -0.01722484	      0.61290443	     35.98066710	     -9.33673233	    -11.30424668	    -40.33058331	     -3.30666919	     -1.59356200	      2.17909751	      2.90096048	      6.82273154	      8.56701452	     -9.48397254	      7.80998440	      4.31433504	      8.28672528	      5.28799483	     -5.54581003	    -11.81412070
      4.52000000	     -9.63676355	      1.82144297	      9.21311624	     -0.14273825	     -0.01792866	      0.61263454	     36.11562791	     -9.25455793	    -11.69545605	    -38.57491510	     -3.08329776	     -1.55343789	      0.98292178	      2.24078059	      6.62068208	      8.76406230	     -9.17588048	      8.08815955	      4.28934216	      8.15306724	      5.22911113	     -5.42884187	    -12.04504682
